<svg width="18" height="18" viewBox="0 0 18 18" fill="none" xmlns="http://www.w3.org/2000/svg">
<path d="M9 13.5V12.375C9.43494 12.3374 9.84267 12.1476 10.1514 11.8389C10.4601 11.5302 10.6499 11.1224 10.6875 10.6875H11.8125C11.7761 11.4217 11.4681 12.1161 10.9484 12.6359C10.4286 13.1556 9.73417 13.4636 9 13.5Z" fill="#85B6FF"/>
<path d="M9 15.75C7.65784 15.7483 6.37113 15.2144 5.42208 14.2654C4.47303 13.3163 3.93914 12.0296 3.9375 10.6875C3.96777 9.70069 4.25764 8.73933 4.77788 7.90028L8.52356 1.93329C8.57766 1.85735 8.64913 1.79545 8.73201 1.75274C8.81488 1.71003 8.90677 1.68774 9 1.68774C9.09323 1.68774 9.18512 1.71003 9.26799 1.75274C9.35087 1.79545 9.42234 1.85735 9.47644 1.93329L13.2058 7.87103C13.7348 8.71786 14.0303 9.68953 14.0625 10.6875C14.0609 12.0296 13.527 13.3163 12.5779 14.2654C11.6289 15.2144 10.3422 15.7483 9 15.75ZM9 3.28947L5.74763 8.46897C5.32856 9.13555 5.09227 9.90067 5.0625 10.6875C5.0625 11.7318 5.47734 12.7333 6.21577 13.4717C6.95419 14.2101 7.95571 14.625 9 14.625C10.0443 14.625 11.0458 14.2101 11.7842 13.4717C12.5227 12.7333 12.9375 11.7318 12.9375 10.6875C12.9054 9.88967 12.6632 9.11449 12.2355 8.44028L9 3.28947Z" fill="#85B6FF"/>
</svg>
