<svg width="64" height="64" viewBox="0 0 64 64" fill="none" xmlns="http://www.w3.org/2000/svg">
<g clip-path="url(#clip0_2_210)">
<path fill-rule="evenodd" clip-rule="evenodd" d="M55 22.6667C55 28.7418 50.0751 33.6667 44 33.6667C37.9249 33.6667 33 28.7418 33 22.6667C33 16.5916 37.9249 11.6667 44 11.6667C50.0751 11.6667 55 16.5916 55 22.6667Z" stroke="#A5A6F6" stroke-width="2"/>
<line x1="63" y1="22.6667" x2="59" y2="22.6667" stroke="#F25022" stroke-width="2" stroke-linecap="round" stroke-linejoin="round"/>
<line x1="29" y1="22.6667" x2="25" y2="22.6667" stroke="#F25022" stroke-width="2" stroke-linecap="round" stroke-linejoin="round"/>
<line x1="63" y1="22.6667" x2="59" y2="22.6667" stroke="#A5A6F6" stroke-width="2" stroke-linecap="round" stroke-linejoin="round"/>
<line x1="29" y1="22.6667" x2="25" y2="22.6667" stroke="#A5A6F6" stroke-width="2" stroke-linecap="round" stroke-linejoin="round"/>
<g clip-path="url(#clip1_2_210)">
<line x1="60.4545" y1="32.1667" x2="56.9904" y2="30.1667" stroke="#A5A6F6" stroke-width="2" stroke-linecap="round" stroke-linejoin="round"/>
</g>
<g clip-path="url(#clip2_2_210)">
<line x1="53.5" y1="39.1212" x2="51.5" y2="35.6571" stroke="#A5A6F6" stroke-width="2" stroke-linecap="round" stroke-linejoin="round"/>
</g>
<g clip-path="url(#clip3_2_210)">
<line x1="36.5" y1="9.67633" x2="34.5" y2="6.21223" stroke="#A5A6F6" stroke-width="2" stroke-linecap="round" stroke-linejoin="round"/>
</g>
<g clip-path="url(#clip4_2_210)">
<line x1="44" y1="41.6667" x2="44" y2="37.6667" stroke="#A5A6F6" stroke-width="2" stroke-linecap="round" stroke-linejoin="round"/>
</g>
<g clip-path="url(#clip5_2_210)">
<line x1="44" y1="7.66669" x2="44" y2="3.66669" stroke="#A5A6F6" stroke-width="2" stroke-linecap="round" stroke-linejoin="round"/>
</g>
<g clip-path="url(#clip6_2_210)">
<line x1="34.5" y1="39.1212" x2="36.5" y2="35.6571" stroke="#A5A6F6" stroke-width="2" stroke-linecap="round" stroke-linejoin="round"/>
</g>
<g clip-path="url(#clip7_2_210)">
<line x1="51.5" y1="9.67633" x2="53.5" y2="6.21223" stroke="#A5A6F6" stroke-width="2" stroke-linecap="round" stroke-linejoin="round"/>
</g>
<g clip-path="url(#clip8_2_210)">
<line x1="27.5455" y1="32.1667" x2="31.0096" y2="30.1667" stroke="#A5A6F6" stroke-width="2" stroke-linecap="round" stroke-linejoin="round"/>
</g>
<g clip-path="url(#clip9_2_210)">
<line x1="56.9904" y1="15.1667" x2="60.4545" y2="13.1667" stroke="#A5A6F6" stroke-width="2" stroke-linecap="round" stroke-linejoin="round"/>
</g>
<path d="M54 22.6667C54 28.1895 49.5228 32.6667 44 32.6667C38.4772 32.6667 34 28.1895 34 22.6667C34 17.1438 38.4772 12.6667 44 12.6667C49.5228 12.6667 54 17.1438 54 22.6667Z" fill="#FFB900"/>
<path fill-rule="evenodd" clip-rule="evenodd" d="M29.8127 19.7308C29.8127 19.7308 29.997 20.6667 30.0599 20.6757C33.4537 21.1596 36 23.1392 36 26.6667C36 30.5327 32.866 33.6667 29 33.6667H11C7.13401 33.6667 4 30.5327 4 26.6667C4 23.1392 6.60923 20.2211 10.003 19.7372C10.0659 19.7282 10.1275 19.7263 10.1873 19.7308C11.0889 15.1344 15.1395 11.6667 20 11.6667C24.8605 11.6667 28.9111 15.1344 29.8127 19.7308Z" fill="#F3F3F3"/>
<path d="M11.5294 33.6667C7.37103 33.6667 4 30.3834 4 26.3334C4 22.7958 6.57182 19.8433 9.99378 19.1527C11.1702 14.8425 15.2043 11.6667 20 11.6667C25.4215 11.6667 29.8697 15.7254 30.3161 20.8933C33.5268 21.3226 36 24.005 36 27.25C36 30.7938 33.0503 33.6667 29.4118 33.6667H11.5294Z" stroke="#A5A6F6" stroke-width="2" stroke-linecap="round" stroke-linejoin="round"/>
<path fill-rule="evenodd" clip-rule="evenodd" d="M45.0837 28.0854C45.0837 28.0854 45.3294 29.3333 45.4132 29.3453C49.9382 29.9905 53.3334 32.63 53.3334 37.3333C53.3334 42.488 49.1547 46.6666 44 46.6666H20C14.8454 46.6666 10.6667 42.488 10.6667 37.3333C10.6667 32.63 14.1457 28.7392 18.6706 28.0939C18.7545 28.082 18.8366 28.0794 18.9164 28.0854C20.1185 21.9569 25.5193 17.3333 32 17.3333C38.4807 17.3333 43.8815 21.9569 45.0837 28.0854Z" fill="#F3F3F3"/>
<path d="M44 46.6666H44.549C49.4005 46.6666 53.3334 42.8362 53.3334 38.1111C53.3334 33.7844 50.0357 30.2078 45.7548 29.6355C45.1596 22.745 39.2287 17.3333 32 17.3333C25.6057 17.3333 20.2269 21.5678 18.6584 27.3146C14.0958 28.2354 10.6667 32.1721 10.6667 36.8889C10.6667 42.0579 14.7849 46.29 20 46.6429" stroke="#A5A6F6" stroke-width="2" stroke-linecap="round" stroke-linejoin="round"/>
<path d="M24 50.2615L27.3333 44.488M30.6667 48.9282L34 43.1547M36 51.5948L39.3333 45.8213" stroke="#A5A6F6" stroke-width="2" stroke-linecap="round" stroke-linejoin="round"/>
</g>
<defs>
<clipPath id="clip0_2_210">
<rect width="64" height="64" fill="white"/>
</clipPath>
<clipPath id="clip1_2_210">
<rect x="56.2583" y="27.4346" width="8" height="4" rx="2" transform="rotate(30 56.2583 27.4346)" fill="white"/>
</clipPath>
<clipPath id="clip2_2_210">
<rect x="52.2321" y="32.925" width="8" height="4" rx="2" transform="rotate(60 52.2321 32.925)" fill="white"/>
</clipPath>
<clipPath id="clip3_2_210">
<rect x="35.2321" y="3.48016" width="8" height="4" rx="2" transform="rotate(60 35.2321 3.48016)" fill="white"/>
</clipPath>
<clipPath id="clip4_2_210">
<rect x="46" y="35.6667" width="8" height="4" rx="2" transform="rotate(90 46 35.6667)" fill="white"/>
</clipPath>
<clipPath id="clip5_2_210">
<rect x="46" y="1.66669" width="8" height="4" rx="2" transform="rotate(90 46 1.66669)" fill="white"/>
</clipPath>
<clipPath id="clip6_2_210">
<rect x="39.2321" y="34.925" width="8" height="4" rx="2" transform="rotate(120 39.2321 34.925)" fill="white"/>
</clipPath>
<clipPath id="clip7_2_210">
<rect x="56.2321" y="5.48016" width="8" height="4" rx="2" transform="rotate(120 56.2321 5.48016)" fill="white"/>
</clipPath>
<clipPath id="clip8_2_210">
<rect x="33.7417" y="30.8987" width="8" height="4" rx="2" transform="rotate(150 33.7417 30.8987)" fill="white"/>
</clipPath>
<clipPath id="clip9_2_210">
<rect x="63.1865" y="13.8987" width="8" height="4" rx="2" transform="rotate(150 63.1865 13.8987)" fill="white"/>
</clipPath>
</defs>
</svg>
