<svg width="64" height="64" viewBox="0 0 64 64" fill="none" xmlns="http://www.w3.org/2000/svg">
<path fill-rule="evenodd" clip-rule="evenodd" d="M45.0836 28.0854C45.0836 28.0854 45.3293 29.3333 45.4132 29.3453C49.9382 29.9905 53.3333 32.63 53.3333 37.3333C53.3333 42.488 49.1546 46.6666 44 46.6666H20C14.8453 46.6666 10.6666 42.488 10.6666 37.3333C10.6666 32.63 14.1456 28.7392 18.6706 28.0939C18.7544 28.082 18.8366 28.0794 18.9163 28.0854C20.1185 21.9569 25.5193 17.3333 32 17.3333C38.4807 17.3333 43.8815 21.9569 45.0836 28.0854Z" fill="#F3F3F3"/>
<path d="M44 46.6666H44.549C49.4004 46.6666 53.3333 42.8362 53.3333 38.1111C53.3333 33.7844 50.0357 30.2078 45.7548 29.6355C45.1595 22.745 39.2286 17.3333 32 17.3333C25.6057 17.3333 20.2268 21.5678 18.6583 27.3146C14.0957 28.2354 10.6666 32.1721 10.6666 36.8889C10.6666 42.0579 14.7848 46.29 20 46.6429" stroke="#A5A6F6" stroke-width="2" stroke-linecap="round" stroke-linejoin="round"/>
<path fill-rule="evenodd" clip-rule="evenodd" d="M37.3334 37.3333C35.1242 37.3333 33.3334 39.1242 33.3334 41.3333V41.6969C33.3334 42.4333 33.9303 43.0303 34.6667 43.0303C35.4031 43.0303 36 42.4333 36 41.6969V41.3333C36 40.5969 36.597 40 37.3334 40C38.0697 40 38.6667 40.5969 38.6667 41.3333V42C38.6667 43.1045 37.7713 44 36.6667 44H35.3334C34.597 44 34 44.5969 34 45.3333C34 46.0697 34.597 46.6666 35.3334 46.6666H36.6667C39.244 46.6666 41.3334 44.5773 41.3334 42V41.3333C41.3334 39.1242 39.5425 37.3333 37.3334 37.3333ZM38 58.6666C35.4227 58.6666 33.3334 56.5773 33.3334 54V53.3333C33.3334 52.5969 33.9303 52 34.6667 52C35.4031 52 36 52.5969 36 53.3333V54C36 55.1045 36.8955 56 38 56C39.1046 56 40 55.1045 40 54V53.3333C40 51.8606 38.8061 50.6666 37.3334 50.6666H32C31.2636 50.6666 30.6667 50.0697 30.6667 49.3333C30.6667 48.5969 31.2636 48 32 48H37.3334C40.2789 48 42.6667 50.3878 42.6667 53.3333V54C42.6667 56.5773 40.5773 58.6666 38 58.6666Z" fill="#A5A6F6"/>
<path d="M33.3078 44.2496C33.2528 44.0901 33.1165 43.975 32.9543 43.951L27.9929 43.2155L30.269 37.9757C30.3298 37.8347 30.3177 37.6711 30.2359 37.5412C30.1546 37.4117 30.0147 37.3333 29.8651 37.3333H22.9363C22.6982 37.3333 22.5029 37.5278 22.4945 37.7729L22.1754 47.0847C22.1674 47.3174 22.3309 47.5188 22.5543 47.5519L26.0037 48.0639L21.3886 56.6568C21.2804 56.8591 21.3354 57.1121 21.5168 57.2476C21.595 57.3057 21.6852 57.3333 21.7755 57.3333C21.8952 57.3333 22.0141 57.2831 22.1007 57.1858L33.217 44.711C33.3278 44.5865 33.3627 44.4091 33.3078 44.2496Z" fill="#FFB900"/>
</svg>
