<svg width="57" height="48" viewBox="0 0 57 48" fill="none" xmlns="http://www.w3.org/2000/svg">
<g clip-path="url(#clip0_2_60)">
<path fill-rule="evenodd" clip-rule="evenodd" d="M48.8889 20.1481C48.8889 25.5483 44.5113 29.9259 39.1112 29.9259C33.711 29.9259 29.3334 25.5483 29.3334 20.1481C29.3334 14.748 33.711 10.3704 39.1112 10.3704C44.5113 10.3704 48.8889 14.748 48.8889 20.1481Z" stroke="#A5A6F6" stroke-width="2"/>
<g clip-path="url(#clip1_2_60)">
<line x1="55.8888" y1="20.2593" x2="52.5555" y2="20.2593" stroke="#F25022" stroke-width="2" stroke-linecap="round" stroke-linejoin="round"/>
</g>
<g clip-path="url(#clip2_2_60)">
<line x1="25.6666" y1="20.2593" x2="22.3333" y2="20.2593" stroke="#F25022" stroke-width="2" stroke-linecap="round" stroke-linejoin="round"/>
</g>
<g clip-path="url(#clip3_2_60)">
<line x1="55.8888" y1="20.2593" x2="52.5555" y2="20.2593" stroke="#A5A6F6" stroke-width="2" stroke-linecap="round" stroke-linejoin="round"/>
</g>
<g clip-path="url(#clip4_2_60)">
<line x1="25.6666" y1="20.2593" x2="22.3333" y2="20.2593" stroke="#A5A6F6" stroke-width="2" stroke-linecap="round" stroke-linejoin="round"/>
</g>
<g clip-path="url(#clip5_2_60)">
<line x1="53.5856" y1="28.6333" x2="50.6989" y2="26.9666" stroke="#A5A6F6" stroke-width="2" stroke-linecap="round" stroke-linejoin="round"/>
</g>
<g clip-path="url(#clip6_2_60)">
<line x1="47.4038" y1="34.7337" x2="45.7371" y2="31.8469" stroke="#A5A6F6" stroke-width="2" stroke-linecap="round" stroke-linejoin="round"/>
</g>
<g clip-path="url(#clip7_2_60)">
<line x1="32.2927" y1="8.56047" x2="30.626" y2="5.67371" stroke="#A5A6F6" stroke-width="2" stroke-linecap="round" stroke-linejoin="round"/>
</g>
<g clip-path="url(#clip8_2_60)">
<line x1="39" y1="36.9259" x2="39" y2="33.5926" stroke="#A5A6F6" stroke-width="2" stroke-linecap="round" stroke-linejoin="round"/>
</g>
<g clip-path="url(#clip9_2_60)">
<line x1="39" y1="6.7037" x2="39" y2="3.37037" stroke="#A5A6F6" stroke-width="2" stroke-linecap="round" stroke-linejoin="round"/>
</g>
<g clip-path="url(#clip10_2_60)">
<line x1="30.626" y1="34.6226" x2="32.2927" y2="31.7358" stroke="#A5A6F6" stroke-width="2" stroke-linecap="round" stroke-linejoin="round"/>
</g>
<g clip-path="url(#clip11_2_60)">
<line x1="45.7371" y1="8.44935" x2="47.4038" y2="5.5626" stroke="#A5A6F6" stroke-width="2" stroke-linecap="round" stroke-linejoin="round"/>
</g>
<g clip-path="url(#clip12_2_60)">
<line x1="24.5256" y1="28.4408" x2="27.4123" y2="26.7741" stroke="#A5A6F6" stroke-width="2" stroke-linecap="round" stroke-linejoin="round"/>
</g>
<g clip-path="url(#clip13_2_60)">
<line x1="50.6988" y1="13.3297" x2="53.5855" y2="11.663" stroke="#A5A6F6" stroke-width="2" stroke-linecap="round" stroke-linejoin="round"/>
</g>
<path d="M48.0001 20.1481C48.0001 25.0573 44.0204 29.037 39.1112 29.037C34.202 29.037 30.2223 25.0573 30.2223 20.1481C30.2223 15.2389 34.202 11.2593 39.1112 11.2593C44.0204 11.2593 48.0001 15.2389 48.0001 20.1481Z" fill="#FFB900"/>
<path fill-rule="evenodd" clip-rule="evenodd" d="M26.5002 17.5384C26.5002 17.5384 26.664 18.3704 26.7199 18.3783C29.7366 18.8085 32 20.5681 32 23.7037C32 27.1401 29.2142 29.9259 25.7778 29.9259H9.77776C6.34133 29.9259 3.55554 27.1401 3.55554 23.7037C3.55554 20.5681 5.87486 17.9743 8.89151 17.5441C8.94741 17.5361 9.00217 17.5344 9.05532 17.5384C9.85677 13.4528 13.4573 10.3704 17.7778 10.3704C22.0982 10.3704 25.6988 13.4528 26.5002 17.5384Z" fill="#F3F3F3"/>
<path d="M10.2484 29.9259C6.55202 29.9259 3.55554 27.0075 3.55554 23.4074C3.55554 20.2629 5.84161 17.6384 8.88334 17.0246C9.92902 13.1933 13.5149 10.3704 17.7778 10.3704C22.5969 10.3704 26.5508 13.9781 26.9476 18.5718C29.8016 18.9534 32 21.3378 32 24.2222C32 27.3723 29.3781 29.9259 26.1438 29.9259H10.2484Z" stroke="#A5A6F6" stroke-width="2" stroke-linecap="round" stroke-linejoin="round"/>
<path fill-rule="evenodd" clip-rule="evenodd" d="M40.0745 24.9648C40.0745 24.9648 40.2929 26.0741 40.3674 26.0847C44.3896 26.6583 47.4075 29.0044 47.4075 33.1852C47.4075 37.7671 43.6931 41.4815 39.1112 41.4815H17.7779C13.1959 41.4815 9.48157 37.7671 9.48157 33.1852C9.48157 29.0044 12.574 25.546 16.5962 24.9724C16.6707 24.9618 16.7437 24.9595 16.8146 24.9648C17.8832 19.5173 22.6839 15.4074 28.4445 15.4074C34.2051 15.4074 39.0059 19.5173 40.0745 24.9648Z" fill="#F3F3F3"/>
<path d="M18.4053 41.4815C13.4769 41.4815 9.48157 37.5902 9.48157 32.7901C9.48157 28.5975 12.5297 25.0982 16.5853 24.2797C17.9795 19.1714 22.7607 15.4074 28.4445 15.4074C34.87 15.4074 40.1419 20.2178 40.671 26.3427C44.4763 26.8514 47.4075 30.0306 47.4075 33.8765C47.4075 38.0766 43.9116 41.4815 39.5992 41.4815H18.4053Z" stroke="#A5A6F6" stroke-width="2" stroke-linecap="round" stroke-linejoin="round"/>
</g>
<defs>
<clipPath id="clip0_2_60">
<rect width="56.8889" height="48" fill="white"/>
</clipPath>
<clipPath id="clip1_2_60">
<rect x="50.6666" y="18.3704" width="7.11111" height="3.55556" rx="1.77778" fill="white"/>
</clipPath>
<clipPath id="clip2_2_60">
<rect x="20.4445" y="18.3704" width="7.11111" height="3.55556" rx="1.77778" fill="white"/>
</clipPath>
<clipPath id="clip3_2_60">
<rect x="50.6666" y="18.3704" width="7.11111" height="3.55556" rx="1.77778" fill="white"/>
</clipPath>
<clipPath id="clip4_2_60">
<rect x="20.4445" y="18.3704" width="7.11111" height="3.55556" rx="1.77778" fill="white"/>
</clipPath>
<clipPath id="clip5_2_60">
<rect x="50.0074" y="24.3863" width="7.11111" height="3.55555" rx="1.77778" transform="rotate(30 50.0074 24.3863)" fill="white"/>
</clipPath>
<clipPath id="clip6_2_60">
<rect x="46.4285" y="29.2667" width="7.11111" height="3.55556" rx="1.77778" transform="rotate(60 46.4285 29.2667)" fill="white"/>
</clipPath>
<clipPath id="clip7_2_60">
<rect x="31.3174" y="3.09344" width="7.11111" height="3.55556" rx="1.77778" transform="rotate(60 31.3174 3.09344)" fill="white"/>
</clipPath>
<clipPath id="clip8_2_60">
<rect x="40.8889" y="31.7037" width="7.11111" height="3.55556" rx="1.77778" transform="rotate(90 40.8889 31.7037)" fill="white"/>
</clipPath>
<clipPath id="clip9_2_60">
<rect x="40.8889" y="1.48148" width="7.11111" height="3.55556" rx="1.77778" transform="rotate(90 40.8889 1.48148)" fill="white"/>
</clipPath>
<clipPath id="clip10_2_60">
<rect x="34.8729" y="31.0444" width="7.11111" height="3.55556" rx="1.77778" transform="rotate(120 34.8729 31.0444)" fill="white"/>
</clipPath>
<clipPath id="clip11_2_60">
<rect x="49.984" y="4.87122" width="7.11111" height="3.55556" rx="1.77778" transform="rotate(120 49.984 4.87122)" fill="white"/>
</clipPath>
<clipPath id="clip12_2_60">
<rect x="29.9926" y="27.4655" width="7.11111" height="3.55556" rx="1.77778" transform="rotate(150 29.9926 27.4655)" fill="white"/>
</clipPath>
<clipPath id="clip13_2_60">
<rect x="56.1658" y="12.3544" width="7.11111" height="3.55556" rx="1.77778" transform="rotate(150 56.1658 12.3544)" fill="white"/>
</clipPath>
</defs>
</svg>
